<?xml version="1.0" encoding="UTF-8" standalone="no"?><!DOCTYPE svg PUBLIC "-//W3C//DTD SVG 1.1//EN" "http://www.w3.org/Graphics/SVG/1.1/DTD/svg11.dtd"><svg width="100%" height="100%" viewBox="0 0 1790 1839" version="1.1" xmlns="http://www.w3.org/2000/svg" xmlns:xlink="http://www.w3.org/1999/xlink" xml:space="preserve" style="fill-rule:evenodd;clip-rule:evenodd;stroke-linejoin:round;stroke-miterlimit:2;"><g><g><path d="M920.526,0.119c-29.997,1.114 -77.26,5.252 -103.04,9.071c-147.438,21.563 -274.268,78.135 -381.525,170.195c-14.641,12.571 -50.764,48.774 -63.257,63.335c-24.745,29.042 -46.387,59.517 -63.653,89.513c-29.838,51.958 -56.811,118.795 -68.508,169.638c-5.808,25.541 -8.752,46.865 -9.866,73.043c-0.716,16.232 -0.716,17.743 1.114,29.44c2.705,16.868 5.41,28.644 8.434,35.806c1.353,3.262 3.103,7.479 3.819,9.309l1.273,3.341l-5.49,8.196c-21.881,33.021 -44.478,62.46 -98.743,128.421c-54.663,66.519 -82.83,103.359 -105.745,138.209c-20.051,30.634 -29.281,50.446 -33.737,72.725c-1.989,9.468 -2.069,15.436 -0.557,23.472c2.785,14.561 7.957,23.154 21.006,35.089c8.593,7.878 16.152,13.288 24.427,17.426c3.501,1.75 10.264,5.331 14.959,7.956c16.868,9.389 24.427,11.776 49.491,15.675c16.391,2.626 25.621,4.854 29.599,7.321c5.808,3.66 9.707,10.582 8.514,15.595c-3.183,14.083 -15.437,52.832 -18.699,59.277c-1.273,2.547 -4.694,7.718 -7.638,11.538c-2.944,3.898 -6.684,8.752 -8.355,10.98c-9.707,12.731 -12.89,26.257 -9.866,42.012c2.626,13.606 13.606,27.928 31.111,40.738c12.014,8.753 13.208,9.946 12.253,11.696c-0.477,0.796 -5.41,6.366 -11.06,12.254c-5.649,5.888 -11.935,13.208 -14.004,16.311c-4.933,7.479 -8.434,16.471 -8.832,22.995c-0.318,4.774 -0.079,5.649 2.785,11.537c4.058,8.196 10.424,16.63 22.597,29.44c5.65,5.968 10.901,12.413 12.413,15.118c1.432,2.626 3.819,6.286 5.251,8.036c3.183,3.979 7.877,14.959 9.23,21.484c2.228,10.424 -0.875,23.791 -12.731,56.015c-4.376,12.015 -8.354,22.677 -8.752,23.712c-1.989,4.694 -8.832,28.644 -10.582,37.157c-5.172,24.746 -4.775,47.343 1.034,67.235c0.875,2.864 4.137,9.707 7.32,15.277c14.481,25.302 29.838,42.329 51.082,56.572c3.979,2.626 8.435,5.809 9.867,7.082c6.365,5.49 28.883,15.198 52.276,22.438l14.322,4.535l48.536,0.717c26.735,0.397 79.726,1.193 117.76,1.591c38.112,0.478 73.202,1.194 78.055,1.592c23.632,1.83 41.932,11.378 57.209,29.838c2.228,2.625 5.411,6.206 7.161,7.956c2.865,2.944 9.31,14.005 15.994,27.452c3.182,6.524 10.503,24.984 13.844,35.168l2.547,7.798l12.651,0c7.002,0 12.651,-0.318 12.651,-0.637c-0,-1.511 -8.832,-26.893 -13.049,-37.555c-8.116,-20.37 -23.075,-47.104 -28.963,-51.799c-1.352,-1.035 -4.376,-4.297 -6.842,-7.161c-7.241,-8.673 -20.609,-19.096 -31.35,-24.507c-14.322,-7.241 -27.451,-10.185 -49.093,-11.219c-8.275,-0.398 -61.665,-1.273 -118.556,-1.91c-56.891,-0.716 -106.461,-1.433 -110.201,-1.751c-14.004,-1.114 -52.435,-15.357 -60.471,-22.358c-1.512,-1.353 -4.694,-3.581 -7.082,-4.934c-18.937,-11.139 -38.192,-32.782 -49.729,-55.697c-7.639,-15.198 -8.116,-42.409 -1.194,-69.542c2.387,-9.468 7.32,-24.109 16.869,-49.968c8.354,-22.517 12.333,-36.521 14.083,-49.013c1.751,-11.936 -1.432,-26.178 -9.23,-41.774c-2.069,-4.058 -4.615,-8.514 -5.649,-9.786c-1.034,-1.353 -3.58,-4.934 -5.57,-7.958c-2.068,-3.103 -8.673,-10.9 -14.64,-17.345c-10.264,-11.06 -17.425,-20.29 -17.425,-22.677c-0,-1.83 3.739,-8.514 7.24,-12.97c1.91,-2.386 7.639,-8.672 12.731,-14.083c10.344,-10.741 14.481,-17.504 15.436,-25.063c1.273,-10.026 -1.91,-14.72 -18.38,-26.894c-14.083,-10.344 -21.961,-18.062 -25.223,-24.586c-1.83,-3.581 -2.148,-5.331 -2.148,-10.742c-0,-3.581 0.398,-7.718 0.875,-9.15c0.557,-1.432 5.331,-8.435 10.742,-15.596c5.808,-7.717 11.06,-15.674 12.969,-19.573c3.183,-6.604 12.651,-35.805 17.982,-55.14c5.729,-21.085 2.467,-33.817 -11.696,-45.752c-9.946,-8.354 -18.141,-11.298 -42.728,-15.118c-18.857,-2.943 -26.734,-4.933 -33.498,-8.274c-18.778,-9.469 -31.906,-16.869 -36.998,-20.688c-8.275,-6.445 -16.153,-14.959 -18.46,-20.289c-7.082,-15.835 1.034,-42.888 23.472,-78.136c22.995,-36.124 47.661,-68.667 110.838,-145.927c42.807,-52.434 63.972,-79.169 77.26,-97.469c11.219,-15.595 29.121,-42.41 30.633,-45.99c1.989,-4.695 0.239,-12.413 -6.047,-26.894c-4.297,-9.946 -8.832,-34.453 -8.832,-47.502c0,-44.319 11.617,-97.072 33.657,-152.531c33.18,-83.545 72.884,-145.369 131.047,-203.771c20.37,-20.449 33.817,-32.623 53.868,-48.537c26.336,-20.926 52.435,-38.908 80.203,-55.22c40.739,-23.87 91.105,-46.546 135.265,-60.789c84.262,-27.371 166.933,-39.863 264.164,-39.863c59.278,-0 102.96,3.342 167.49,12.81c36.521,5.331 97.231,17.346 104.949,20.688c1.91,0.795 6.763,2.307 10.742,3.182c27.132,6.286 57.606,15.755 85.694,26.655c9.468,3.66 17.823,6.684 18.618,6.684c2.865,0 64.689,28.724 84.581,39.307c48.934,26.018 94.208,57.686 134.23,93.968c21.563,19.495 57.846,57.846 63.654,67.235c1.194,1.989 4.615,6.525 7.639,10.026c2.944,3.581 7.798,9.787 10.742,13.924c2.944,4.138 6.684,8.991 8.354,10.742c1.592,1.83 3.581,4.535 4.297,5.968c0.796,1.511 6.524,10.423 12.81,19.812c6.207,9.389 13.925,21.721 17.107,27.451c7.241,12.969 24.587,48.535 30.157,61.664c2.307,5.49 5.331,12.651 6.763,15.913c4.694,10.503 18.937,56.255 22.279,71.611c1.114,5.013 2.705,10.742 3.501,12.731c3.023,7.32 11.696,55.061 14.401,78.772c4.536,41.295 5.888,96.038 3.183,135.264c-7.559,110.281 -32.304,209.423 -77.498,310.95c-15.357,34.612 -31.827,61.427 -69.701,113.941c-27.452,38.033 -46.786,67.234 -57.687,87.126c-1.671,3.023 -3.899,6.604 -4.933,7.798c-0.955,1.273 -3.103,4.853 -4.695,7.956c-1.591,3.183 -5.888,11.14 -9.628,17.824c-12.571,22.517 -26.654,59.198 -32.065,83.784c-3.979,18.062 -4.376,23.393 -4.296,55.698c0.238,85.216 8.672,162.874 34.213,314.291c4.616,27.372 9.549,56.653 10.901,65.007l2.546,15.357l25.224,-0l-0.557,-3.422c-0.319,-1.83 -0.876,-4.614 -1.274,-6.126c-0.954,-3.581 -15.913,-92.299 -22.12,-131.287c-17.425,-109.087 -24.188,-178.709 -24.268,-250.637c-0.08,-30.634 0.08,-36.523 1.353,-43.365c3.978,-22.518 12.572,-47.979 25.302,-75.192c4.615,-9.707 18.141,-34.293 20.21,-36.601c1.035,-1.114 2.944,-4.296 4.376,-7.161c8.594,-17.266 21.324,-36.442 61.984,-93.491c40.182,-56.414 54.186,-80.443 73.6,-126.035c31.031,-72.884 51.242,-142.108 63.335,-216.742c7.4,-45.831 10.344,-79.408 10.901,-125.398c0.716,-55.379 -1.909,-94.288 -9.389,-137.652c-3.421,-20.051 -9.23,-47.343 -10.503,-49.968c-0.637,-1.194 -1.83,-5.093 -2.546,-8.594c-3.66,-16.709 -18.38,-63.494 -24.427,-77.498c-12.651,-29.52 -22.598,-50.844 -31.827,-68.11c-8.991,-16.709 -12.731,-22.995 -23.552,-39.147c-5.172,-7.798 -10.423,-15.993 -11.697,-18.141c-1.273,-2.228 -4.296,-6.525 -6.763,-9.548c-2.387,-3.104 -6.365,-8.196 -8.752,-11.459c-2.308,-3.182 -6.525,-8.593 -9.31,-11.934c-2.864,-3.342 -5.809,-7.321 -6.604,-8.833c-3.581,-7.002 -40.739,-46.945 -61.666,-66.359c-47.183,-43.841 -101.607,-81.716 -157.623,-109.723c-24.507,-12.254 -73.202,-34.294 -78.294,-35.408c-1.989,-0.398 -10.026,-3.262 -17.903,-6.365c-23.472,-9.071 -54.503,-18.938 -78.135,-24.746c-7.081,-1.75 -13.924,-3.74 -15.197,-4.376c-2.785,-1.432 -16.073,-4.456 -45.911,-10.503c-80.602,-16.232 -151.257,-23.871 -226.369,-24.507c-19.017,-0.159 -38.033,-0.159 -42.171,0Z" style="fill:#fff;fill-rule:nonzero;"/></g><g><path d="M1099,74.435c-6.206,3.104 -12.651,9.946 -13.924,14.8l-0.955,3.501l-47.422,0.159l-47.343,0.239l-60.869,31.986l-60.869,32.065l-41.773,0l-0.796,-2.228c-1.432,-3.898 -2.705,-5.967 -6.206,-9.786c-4.615,-5.172 -10.344,-7.878 -17.823,-8.434c-11.935,-0.876 -21.802,4.774 -27.053,15.515c-2.308,4.695 -2.626,6.047 -2.626,11.697c0,5.569 0.318,7.081 2.546,11.617c3.183,6.444 7.321,10.661 12.97,13.367c3.74,1.75 5.41,2.068 11.935,2.068c6.525,0 8.195,-0.318 12.015,-2.148c5.649,-2.626 10.662,-7.559 13.128,-12.969l1.91,-4.138l8.514,-0.477c4.615,-0.318 15.038,-0.557 22.995,-0.557l14.64,-0.001l60.949,-32.224l60.948,-32.224l44.717,-0.001l44.717,0l1.91,4.137c2.387,5.252 9.07,12.095 14.083,14.402c5.411,2.387 17.266,2.387 22.677,-0.079c5.092,-2.228 11.298,-8.196 13.765,-13.129c1.751,-3.501 1.989,-5.092 1.989,-12.094c0,-7.002 -0.238,-8.594 -1.989,-12.095c-2.546,-4.933 -8.752,-10.9 -13.765,-13.128c-2.546,-1.114 -5.968,-1.75 -10.901,-1.989c-6.763,-0.398 -7.4,-0.239 -12.094,2.148Zm19.892,13.288c3.74,2.228 5.57,5.967 5.57,11.299c-0,5.569 -2.387,10.662 -6.048,12.571c-3.66,1.989 -12.651,1.831 -15.515,-0.318c-4.058,-2.944 -5.729,-6.445 -5.729,-11.538c0,-6.762 3.103,-11.696 8.434,-13.367c3.342,-1.114 10.344,-0.318 13.288,1.353Zm-314.769,63.177c3.183,1.193 5.809,3.819 7.48,7.479c2.546,5.57 1.511,11.537 -2.865,15.754c-5.331,5.172 -13.208,5.729 -18.38,1.114c-4.456,-3.819 -5.65,-7.241 -5.252,-14.64c0.398,-7.002 11.378,-12.652 19.017,-9.707Z" style="fill:#fff;fill-rule:nonzero;"/></g><g><path d="M1249.46,95.759c-6.763,3.263 -10.741,7.162 -13.765,13.209l-2.467,5.092l-22.676,0.318c-22.359,0.239 -22.677,0.239 -24.428,2.069l-1.83,1.83l0,136.219c0,74.873 0.239,137.174 0.557,138.288c0.319,1.194 1.274,2.467 1.99,2.785c0.795,0.398 41.773,0.796 91.184,0.955l89.672,0.159l0,127.706l0.001,127.706l-18.142,-0l-18.141,0l-1.034,-3.024c-2.706,-7.479 -10.026,-14.401 -17.505,-16.629c-6.047,-1.751 -15.993,-1.114 -20.608,1.273c-5.013,2.546 -10.344,7.718 -12.731,12.413c-1.91,3.501 -2.148,4.853 -2.148,11.935c-0,7.081 0.238,8.434 2.228,12.492c2.864,5.728 7.717,10.662 13.287,13.287c3.581,1.671 5.57,2.069 11.14,2.069c6.126,0 7.32,-0.239 12.094,-2.626c5.968,-2.944 10.344,-7.399 13.845,-14.083l2.307,-4.297l22.836,-0.238c20.687,-0.239 22.995,-0.398 24.268,-1.672c1.353,-1.352 1.432,-7.638 1.671,-124.92c0.159,-67.951 -0,-130.013 -0.239,-137.97l-0.557,-14.481l-2.546,-0.955c-2.626,-1.035 -69.303,-2.069 -143.062,-2.228l-37.238,-0.08l-0,-127.308l-0,-127.228l16.152,-0.239c8.832,-0.159 16.789,-0.159 17.664,0c1.034,0.16 2.467,1.83 3.899,4.615c3.024,5.729 7.957,10.742 13.288,13.606c3.819,1.989 5.092,2.228 11.855,2.228c6.127,-0 8.275,-0.318 11.299,-1.75c5.649,-2.546 11.219,-8.196 13.845,-14.004c1.989,-4.217 2.307,-5.888 2.307,-11.697c-0,-8.195 -1.671,-12.333 -7.241,-18.3c-5.331,-5.729 -10.423,-7.957 -19.096,-8.434c-6.684,-0.398 -7.4,-0.319 -11.935,1.909Zm19.494,13.447c3.581,2.705 5.251,6.445 5.251,11.776c0,6.127 -1.989,9.707 -6.763,12.174c-7.32,3.819 -16.072,1.194 -19.176,-5.729c-3.5,-7.638 -0.795,-16.072 6.048,-19.335c3.342,-1.512 11.855,-0.875 14.64,1.114Zm40.739,536.524c10.105,2.785 11.617,19.414 2.148,25.063c-3.66,2.148 -11.139,2.148 -14.958,0c-5.729,-3.342 -8.037,-12.412 -4.695,-19.176c2.706,-5.649 9.787,-8.035 17.505,-5.887Z" style="fill:#fff;fill-rule:nonzero;"/></g><g><path d="M715.958,141.511c-14.72,4.217 -23.392,19.016 -19.812,34.055c0.716,2.943 0.796,4.296 0.159,4.534c-2.148,0.717 -67.553,45.831 -83.307,57.448c-2.307,1.671 -8.991,6.525 -15.038,10.662c-5.968,4.217 -15.595,10.981 -21.324,15.038c-5.809,4.138 -13.765,9.708 -17.744,12.493c-3.898,2.784 -11.06,7.797 -15.913,11.139c-4.774,3.342 -11.14,7.718 -14.084,9.787c-2.944,2.069 -5.728,3.739 -6.285,3.739c-0.557,0 -2.467,-0.875 -4.377,-1.989c-4.853,-2.864 -12.492,-4.615 -16.947,-3.978c-8.992,1.273 -17.426,7.161 -21.563,14.88c-3.581,6.762 -4.217,15.356 -1.592,22.278c2.228,6.047 8.276,12.651 14.163,15.516c3.899,1.909 5.491,2.228 11.299,2.228c5.649,-0 7.479,-0.319 11.299,-2.149c5.41,-2.546 11.139,-7.638 14.003,-12.492c1.99,-3.341 2.149,-4.456 2.229,-12.651c0.079,-8.912 0.158,-9.071 2.387,-11.299c1.273,-1.273 14.162,-10.582 28.564,-20.687c14.481,-10.185 28.565,-20.21 31.429,-22.2c2.865,-2.068 11.776,-8.434 19.892,-14.162c8.116,-5.649 31.827,-22.438 52.753,-37.238l38.113,-26.894l2.864,1.751c6.525,3.899 8.355,4.455 15.675,4.455c6.366,0 7.639,-0.238 11.776,-2.387c9.707,-4.853 15.675,-14.401 15.675,-25.063c-0,-14.561 -11.06,-26.576 -25.303,-27.531c-3.103,-0.159 -6.842,0.16 -8.991,0.717Zm15.914,16.152c3.74,3.341 6.047,8.752 5.331,12.412c-1.433,7.082 -7.638,12.572 -14.243,12.572c-11.935,-0 -18.539,-14.641 -10.741,-23.552c3.262,-3.66 4.615,-4.217 11.139,-4.217c5.092,-0.08 5.57,0.079 8.514,2.785Zm-224.141,150.701c7.479,2.068 11.935,9.707 10.105,17.106c-2.706,10.424 -15.436,14.243 -23.314,6.923c-7.877,-7.4 -5.012,-20.131 5.49,-23.87c3.104,-1.114 4.218,-1.114 7.719,-0.159Z" style="fill:#fff;fill-rule:nonzero;"/></g><g><path d="M1109.26,160.289c-6.524,3.182 -12.333,8.99 -14.163,14.242l-1.432,4.058l-64.927,0.238l-64.848,0.239l-2.943,1.83l-3.024,1.91l-0,29.361l-0,29.36l-121.738,-0l-1.99,-3.978c-6.047,-11.936 -17.425,-18.062 -29.599,-15.914c-14.083,2.387 -22.438,11.776 -23.154,25.78c-0.398,8.195 1.512,13.765 6.843,19.653c5.411,6.047 11.378,8.673 19.812,8.673c9.151,0 14.163,-1.989 20.131,-8.036c4.058,-4.138 5.172,-5.888 6.684,-10.504c0.397,-1.272 4.296,-1.352 66.359,-1.352c61.824,0 66.041,-0.079 67.155,-1.432c3.023,-3.422 3.182,-4.774 3.58,-33.259l0.478,-28.167l60.471,-0.159l60.392,-0.239l2.307,4.455c4.138,8.275 8.673,12.174 16.63,14.561c5.728,1.671 11.537,1.592 17.664,-0.318c6.524,-1.989 11.378,-6.127 15.038,-12.89c2.546,-4.694 2.705,-5.49 2.705,-12.571c0,-6.525 -0.318,-8.196 -2.068,-11.935c-2.944,-6.207 -7.162,-10.663 -12.413,-13.288c-3.74,-1.751 -5.808,-2.228 -11.696,-2.467c-6.684,-0.238 -7.639,-0.079 -12.254,2.149Zm18.142,12.81c7.002,3.58 9.548,13.765 5.012,20.13c-3.262,4.695 -6.763,6.286 -12.651,5.968c-3.819,-0.239 -5.49,-0.796 -7.718,-2.467c-5.49,-4.217 -7.002,-14.004 -2.944,-19.653c3.66,-5.172 12.253,-7.081 18.301,-3.978Zm-314.133,62.221c6.525,1.91 11.14,10.026 9.389,16.392c-2.546,9.707 -13.447,14.083 -21.881,8.911c-7.32,-4.535 -8.036,-17.425 -1.273,-22.915c3.978,-3.183 8.434,-3.979 13.765,-2.388Z" style="fill:#fff;fill-rule:nonzero;"/></g><g><path d="M1325.76,160.766c-5.967,3.024 -10.741,7.559 -13.844,13.287c-2.467,4.615 -2.706,5.57 -2.706,11.777c0,5.967 0.319,7.32 2.546,12.014c2.785,5.729 7.56,10.662 13.129,13.606c2.944,1.592 4.535,1.83 11.378,1.83c6.922,0 8.514,-0.318 12.492,-2.148c5.65,-2.626 10.423,-7.479 13.208,-13.447l2.149,-4.694l17.902,-0.08c9.867,0 18.539,-0.159 19.335,-0.318c0.716,-0.159 1.83,0.239 2.467,0.795c0.557,0.557 25.063,31.271 54.345,68.19c29.36,36.919 65.722,82.671 80.84,101.687l27.53,34.612l0.08,19.653l0,19.733l-4.854,2.466c-9.946,5.013 -15.754,13.288 -16.47,23.473c-0.716,10.503 3.183,18.459 11.776,24.347c14.163,9.707 32.861,4.933 40.34,-10.344c1.99,-3.978 2.229,-5.41 2.229,-12.094c-0,-6.683 -0.239,-8.116 -2.229,-12.015c-2.625,-5.489 -7.956,-10.503 -13.765,-13.208l-4.296,-1.909l0,-45.672l-33.498,-42.17c-18.46,-23.234 -52.196,-65.644 -74.953,-94.288c-22.756,-28.644 -45.751,-57.527 -51.003,-64.211l-9.627,-12.094l-23.075,-0.08l-23.074,-0l-1.512,-3.66c-2.069,-5.092 -8.514,-11.776 -13.845,-14.401c-3.66,-1.751 -5.808,-2.229 -11.617,-2.467c-6.524,-0.239 -7.638,-0.08 -11.378,1.83Zm15.675,12.333c3.899,1.034 7.639,5.172 8.832,9.627c1.751,6.605 -1.273,13.129 -7.559,16.391c-3.66,1.91 -10.742,1.114 -14.402,-1.671c-3.262,-2.546 -5.967,-7.559 -5.967,-11.219c-0,-3.66 2.626,-8.593 6.047,-11.378c3.342,-2.784 7.479,-3.342 13.049,-1.75Zm238.703,279.918c8.354,4.138 8.275,19.813 -0.08,24.029c-3.66,1.91 -10.901,2.149 -14.083,0.477c-9.23,-4.773 -9.549,-20.209 -0.557,-24.745c3.341,-1.591 11.298,-1.512 14.72,0.239Z" style="fill:#fff;fill-rule:nonzero;"/></g><g><path d="M702.193,225.136c-8.593,3.66 -14.402,9.946 -16.868,18.619c-6.047,20.607 14.879,39.624 36.044,32.941l4.933,-1.592l10.583,12.413c13.287,15.595 39.306,45.274 44.716,51.082l4.058,4.376l14.561,0.239l14.482,0.319l1.511,3.421c3.342,7.559 11.538,14.163 19.574,15.913c14.004,2.865 26.496,-3.819 31.748,-17.107c1.829,-4.615 1.829,-14.56 0.079,-19.891c-1.83,-5.65 -7.32,-11.378 -13.765,-14.482c-4.774,-2.307 -6.047,-2.546 -12.094,-2.546c-5.491,-0 -7.559,0.398 -11.14,2.069c-5.649,2.546 -11.06,7.877 -13.845,13.606l-2.228,4.535l-24.268,0l-27.053,-31.588l-27.053,-31.589l1.99,-5.967c1.511,-4.854 1.83,-7.081 1.432,-11.06c-0.557,-6.684 -3.74,-13.368 -8.275,-17.903c-5.172,-5.013 -10.185,-7.161 -18.062,-7.479c-5.411,-0.239 -7.082,-0 -11.06,1.671Zm16.072,12.73c1.194,0.637 3.183,2.229 4.536,3.66c2.148,2.229 2.387,3.025 2.705,8.833l0.239,6.286l-3.501,3.501c-6.445,6.524 -13.526,6.524 -20.21,0.079l-3.66,-3.501l0.238,-6.365c0.319,-6.843 1.433,-8.833 6.684,-12.095c2.865,-1.83 9.867,-1.989 12.969,-0.398Zm131.924,86.57c3.262,2.228 5.888,7.241 5.888,11.299c-0,5.967 -6.047,13.447 -11.776,14.481c-3.183,0.636 -8.275,-0.795 -11.458,-3.103c-2.705,-2.068 -5.411,-7.32 -5.411,-10.742c0,-3.023 1.83,-7.717 3.82,-10.025c4.137,-4.615 13.447,-5.649 18.937,-1.91Z" style="fill:#fff;fill-rule:nonzero;"/></g><g><path d="M1011.47,236.275c-6.207,3.183 -9.946,6.843 -12.492,12.333c-1.353,3.025 -1.671,5.172 -1.671,12.413c-0,7.957 0.159,9.15 2.148,12.81c2.626,4.933 7.48,9.389 13.367,12.094c6.366,2.945 16.073,3.024 22.279,0.08c5.411,-2.546 10.424,-7.479 13.765,-13.527l2.547,-4.615l25.7,-0.238c14.163,-0.159 26.257,-0.08 26.894,0.159c0.636,0.238 1.989,2.308 3.103,4.535c2.466,5.411 7.638,10.504 13.606,13.447c4.058,1.99 5.57,2.308 11.458,2.308c5.728,-0 7.479,-0.398 11.219,-2.228c5.251,-2.547 11.696,-8.594 13.924,-12.97c2.148,-4.455 2.228,-20.13 -0,-24.188c-4.854,-9.15 -13.129,-14.482 -23.234,-14.959c-13.049,-0.716 -23.154,5.49 -27.928,16.948l-1.432,3.581l-53.39,-0l-1.83,-4.297c-1.989,-4.933 -8.116,-11.219 -13.686,-14.084c-2.705,-1.432 -5.172,-1.909 -11.06,-2.148c-7.399,-0.319 -7.718,-0.239 -13.287,2.546Zm17.664,11.538c6.206,2.864 9.866,9.15 8.752,15.038c-1.989,11.219 -15.436,15.834 -23.711,8.195c-7.798,-7.161 -5.013,-19.812 5.092,-23.87c2.944,-1.194 6.366,-0.955 9.867,0.637Zm108.45,-0.319c5.968,2.546 8.355,6.605 8.355,14.402c-0,4.535 -1.83,7.559 -6.843,11.219c-4.774,3.581 -14.481,1.432 -18.38,-3.978c-2.546,-3.421 -2.387,-13.447 0.159,-17.107c3.74,-5.172 10.582,-7.002 16.709,-4.536Z" style="fill:#fff;fill-rule:nonzero;"/></g><g><path d="M1261.31,272.876c-12.095,3.979 -18.619,13.129 -18.619,26.337c0,11.697 4.376,19.255 14.243,24.507c5.49,2.944 14.401,3.74 20.846,1.91c6.604,-1.91 13.368,-7.718 16.312,-14.004l2.387,-5.013l31.429,0.478c17.266,0.238 36.123,0.716 41.852,1.034l10.503,0.477l1.751,4.218c2.466,5.967 9.389,12.333 15.993,14.561c13.924,4.694 28.724,-1.433 34.532,-14.323c1.989,-4.455 2.149,-5.49 1.83,-12.174c-0.637,-11.935 -5.092,-19.335 -14.72,-24.109c-4.138,-1.989 -5.411,-2.228 -12.174,-2.228c-6.127,0.08 -8.355,0.398 -11.458,1.83c-6.206,2.865 -10.344,6.684 -13.287,12.572l-2.706,5.251l-35.407,-0.477c-19.494,-0.318 -38.113,-0.716 -41.375,-0.955l-6.047,-0.477l-2.626,-5.093c-2.944,-5.728 -8.196,-10.9 -13.527,-13.287c-4.535,-1.99 -15.038,-2.546 -19.732,-1.035Zm12.094,12.493c6.524,1.829 11.537,9.707 10.264,16.231c-1.989,10.901 -15.197,15.277 -23.313,7.878c-3.978,-3.502 -5.172,-6.525 -4.695,-11.538c0.478,-4.854 3.501,-8.911 8.594,-11.617c3.898,-2.068 4.694,-2.148 9.15,-0.954Zm140.436,4.057c6.047,3.104 8.434,8.435 7.003,15.357c-1.512,7.082 -8.355,11.458 -16.471,10.503c-2.785,-0.318 -4.137,-1.114 -7.161,-4.058l-3.66,-3.66l-0.001,-5.968c0,-5.808 0.08,-5.968 3.183,-9.15c1.751,-1.83 3.899,-3.66 4.774,-3.978c3.103,-1.353 8.753,-0.876 12.333,0.954Z" style="fill:#fff;fill-rule:nonzero;"/></g><g><path d="M612.998,288.392c-10.582,2.785 -18.46,11.378 -20.13,22.04c-2.546,15.834 7.161,29.52 22.676,32.066c12.254,1.91 23.632,-4.296 29.44,-16.232l2.149,-4.376l58.561,-0l0,136.856l-84.103,-0l-2.546,-5.092c-4.853,-9.867 -13.128,-14.799 -24.745,-14.8c-8.593,0 -14.163,2.148 -19.574,7.48c-5.251,5.33 -7.559,11.138 -7.559,19.493c-0.079,16.232 10.981,27.133 27.531,27.133c6.365,-0 10.582,-1.274 15.913,-4.695c3.66,-2.466 8.673,-8.752 9.707,-12.333l0.717,-2.466l46.069,-0.398c34.453,-0.318 46.626,-0.717 47.899,-1.432c3.899,-2.148 3.82,-0.637 4.059,-68.189c0.318,-67.951 -0.08,-90.071 -1.83,-92.458c-0.955,-1.352 -3.422,-1.432 -35.726,-1.67l-34.612,-0.239l-1.273,-3.979c-1.751,-5.251 -8.355,-12.015 -14.402,-14.799c-4.933,-2.228 -13.606,-3.183 -18.221,-1.91Zm13.129,14.401c5.808,2.945 9.071,10.424 7.161,16.471c-1.91,5.968 -7.082,9.787 -13.129,9.787c-4.853,0 -8.195,-1.512 -11.378,-5.092c-3.023,-3.422 -3.66,-5.729 -3.103,-10.503c1.034,-9.469 11.855,-15.039 20.449,-10.663Zm-25.939,149.906c3.58,1.511 6.604,5.649 7.718,10.662c1.671,7.24 -2.148,13.526 -9.866,15.993c-7.718,2.546 -15.834,-2.864 -17.585,-11.777c-1.91,-10.184 9.787,-19.016 19.733,-14.878Z" style="fill:#fff;fill-rule:nonzero;"/></g><g><path d="M915.195,305.897c-13.447,3.501 -22.199,19.812 -18.221,33.976c2.546,8.752 8.116,15.038 16.55,18.459c12.89,5.172 29.759,-1.671 35.249,-14.322l2.148,-5.013l87.047,0.239l87.047,0.159l-0,62.301c-0,38.511 0.318,63.335 0.795,65.086c0.398,1.512 1.512,3.581 2.387,4.535c1.592,1.672 1.91,1.672 29.918,1.672l28.326,-0.001l2.228,4.615c2.227,4.774 8.115,10.981 12.571,13.288c3.501,1.83 11.697,2.785 17.107,2.069c9.071,-1.274 16.073,-6.684 20.29,-15.755c1.83,-3.898 2.148,-5.569 2.148,-11.696c0,-6.047 -0.318,-7.877 -2.068,-11.617c-2.546,-5.41 -6.525,-9.548 -12.095,-12.492c-3.819,-1.989 -4.853,-2.148 -12.889,-2.148c-7.639,-0 -9.231,0.238 -12.572,1.909c-5.252,2.626 -10.265,7.878 -12.572,13.129l-1.909,4.456l-48.059,-0l-0.239,-63.893c-0.239,-59.357 -0.318,-63.972 -1.671,-66.438l-1.432,-2.547l-92.139,0l-92.139,0.001l-2.547,-5.093c-2.864,-5.808 -8.036,-10.98 -13.606,-13.447c-3.898,-1.75 -15.197,-2.546 -19.653,-1.432Zm14.481,14.004c1.353,0.716 3.581,2.308 4.854,3.66c1.91,1.989 2.308,3.103 2.546,7.798c0.398,6.604 -0.875,9.389 -5.649,12.89c-3.103,2.307 -3.66,2.466 -8.434,1.989c-8.196,-0.716 -12.651,-4.376 -13.367,-11.06c-0.876,-7.32 1.83,-12.969 7.32,-15.356c3.262,-1.433 9.548,-1.354 12.73,0.079Zm289.467,132.957c5.809,2.944 8.514,7.002 8.514,12.651c-0,6.684 -4.138,12.254 -10.503,14.004c-3.899,1.034 -7.32,0.397 -11.219,-2.148c-4.138,-2.706 -6.127,-6.207 -6.127,-10.981c-0,-10.742 10.423,-18.062 19.335,-13.526Z" style="fill:#fff;fill-rule:nonzero;"/></g><g><path d="M1446.71,363.584c-10.105,3.262 -17.903,12.571 -19.096,22.756c-0.557,4.615 0.875,12.651 2.944,16.789c2.148,4.137 10.423,11.457 14.481,12.81l3.422,1.193l0.238,52.753l0.159,52.754l8.275,8.832c4.536,4.853 15.516,16.709 24.428,26.336l16.152,17.506l-4.376,0.556c-2.308,0.239 -8.275,0.478 -13.209,0.557l-8.831,0.08l-0.955,-2.705c-2.467,-7.56 -9.867,-14.322 -18.221,-16.71c-17.585,-5.092 -35.169,7.877 -35.249,26.019c0,10.582 5.331,19.733 14.641,24.825c3.899,2.228 4.774,2.387 12.571,2.387c7.241,0 8.912,-0.238 12.333,-1.989c5.57,-2.705 10.821,-8.275 13.129,-13.685l1.83,-4.536l22.916,-0.239l22.836,-0.238l2.068,-1.91c2.228,-2.148 2.547,-4.296 1.035,-7.002c-1.114,-2.068 -13.448,-15.675 -39.705,-43.921l-18.937,-20.29l0,-99.141l5.013,-2.227c5.968,-2.785 10.185,-7.162 13.526,-14.402c5.013,-10.503 2.626,-22.757 -5.967,-30.793c-2.148,-1.989 -5.57,-4.376 -7.638,-5.252c-4.695,-2.148 -14.959,-2.705 -19.813,-1.113Zm14.72,13.606c5.093,2.386 7.241,6.285 7.32,13.208c0,5.41 -2.068,8.991 -6.763,11.617c-7.638,4.296 -16.391,1.193 -19.892,-7.082c-2.864,-6.922 -0.238,-14.004 6.684,-17.505c5.172,-2.705 7.24,-2.785 12.651,-0.238Zm-10.264,193.746c4.615,2.308 6.604,6.127 6.604,12.413c-0.08,5.968 -1.592,9.309 -5.729,12.015c-3.183,2.148 -10.662,2.546 -14.242,0.636c-5.172,-2.625 -8.594,-9.548 -7.559,-15.118c1.671,-9.23 12.492,-14.322 20.926,-9.946Z" style="fill:#fff;fill-rule:nonzero;"/></g><g><path d="M642.995,373.768c-8.911,1.273 -17.743,8.037 -20.449,15.595l-1.511,4.058l-11.935,0.239c-6.605,0.159 -42.728,0.397 -80.205,0.477c-65.484,0.159 -68.268,0.08 -68.268,-1.273c-0,-2.308 -4.138,-8.195 -8.673,-12.253c-5.729,-5.172 -11.537,-7.241 -18.858,-6.843c-10.502,0.716 -18.937,6.286 -23.552,15.595c-2.227,4.456 -2.625,6.047 -2.625,11.219c-0,9.071 1.909,13.606 8.275,20.051c6.524,6.605 10.98,8.275 21.085,7.719c10.742,-0.558 18.38,-5.491 22.756,-14.562l2.467,-5.092l16.47,-0.239c9.071,-0.159 44.956,-0.397 79.806,-0.477l63.336,-0.159l1.353,3.501c2.546,6.604 10.184,13.527 17.345,15.675c1.433,0.398 5.57,0.795 9.071,0.795c8.434,0.08 13.129,-1.83 18.619,-7.718c6.047,-6.365 7.559,-10.264 7.559,-19.414c-0,-6.525 -0.319,-8.195 -2.069,-12.015c-5.331,-11.299 -16.47,-16.789 -29.997,-14.879Zm11.856,14.402c5.092,2.705 7.24,6.763 6.842,13.049c-0.238,5.331 -1.591,7.877 -5.569,10.9c-2.944,2.149 -11.299,2.706 -14.72,0.955c-7.639,-3.978 -9.707,-15.118 -3.899,-21.722c4.615,-5.251 11.06,-6.445 17.346,-3.182Zm-214.196,0.557c4.297,2.148 6.923,5.649 7.559,9.946c1.035,6.843 -2.307,12.651 -8.991,15.675c-6.922,3.182 -15.436,-0.558 -17.903,-7.798c-1.591,-4.854 -1.591,-7.081 0.239,-11.06c1.751,-3.899 3.66,-5.57 7.718,-7.081c4.376,-1.592 7.798,-1.512 11.378,0.318Z" style="fill:#fff;fill-rule:nonzero;"/></g><g><path d="M955.297,373.688c-8.911,1.433 -17.346,7.719 -20.449,15.357l-1.75,4.217l-14.879,0.478c-8.116,0.318 -37.397,0.556 -65.007,0.556l-50.207,0l-0.477,-2.307c-0.637,-3.023 -4.854,-8.434 -9.946,-12.572c-7.718,-6.285 -18.141,-7.479 -27.69,-3.103c-15.595,7.081 -20.687,26.177 -11.059,40.898c5.41,8.115 13.367,11.776 24.188,11.139c10.503,-0.637 19.574,-6.445 23.631,-15.197l1.91,-4.138l13.686,-0.398c7.559,-0.238 36.68,-0.556 64.768,-0.636l50.923,-0.159l1.909,4.137c2.308,5.172 8.673,11.617 13.766,14.084c3.103,1.512 5.092,1.83 10.9,1.83c9.23,-0 15.039,-2.467 20.688,-8.673c5.49,-6.047 7.4,-11.458 7.002,-20.131c-0.398,-8.513 -2.546,-13.367 -7.877,-18.459c-6.127,-5.809 -15.118,-8.355 -24.03,-6.923Zm11.379,14.402c5.49,2.864 6.763,5.172 6.763,12.572c-0,5.888 -0.16,6.445 -2.387,8.832c-2.785,2.944 -7.798,5.41 -11.06,5.49c-3.342,-0 -8.991,-2.944 -11.14,-5.888c-5.251,-6.922 -2.387,-18.221 5.491,-21.642c3.659,-1.592 8.354,-1.353 12.333,0.636Zm-184.12,0.557c9.23,4.217 10.821,15.595 3.183,22.916c-5.49,5.251 -11.855,5.569 -18.062,0.795c-4.137,-3.103 -5.808,-7.32 -5.092,-12.651c1.432,-10.105 10.741,-15.277 19.971,-11.06Z" style="fill:#fff;fill-rule:nonzero;"/></g><g><path d="M1048.23,396.126c-5.331,1.83 -7.877,3.422 -11.855,7.639c-5.65,6.047 -7.162,10.105 -7.241,18.778c-0,6.524 0.239,7.638 2.626,12.492c2.944,5.967 6.763,9.707 13.606,13.208l4.455,2.228l0,116.805l0.001,116.805l-4.138,1.591c-5.411,1.989 -10.184,6.763 -13.208,13.208c-2.308,4.775 -2.546,6.047 -2.546,12.492c0.079,9.071 2.307,14.323 8.752,20.21c8.514,7.718 20.529,9.151 31.509,3.581c5.49,-2.705 11.537,-9.787 13.128,-15.198c1.99,-6.842 1.274,-16.151 -1.67,-21.562c-2.865,-5.331 -8.912,-10.98 -13.845,-12.97l-3.819,-1.67l-0.557,-111.872c-0.239,-61.585 -0.717,-114.021 -0.955,-116.487l-0.478,-4.456l4.217,-2.148c7.32,-3.66 11.538,-7.4 14.402,-12.651c2.467,-4.616 2.626,-5.251 2.626,-13.209c-0,-7.24 -0.239,-8.831 -1.989,-12.332c-2.626,-5.331 -7.878,-10.424 -13.368,-12.97c-5.41,-2.466 -14.64,-3.183 -19.653,-1.512Zm14.959,14.402c4.853,2.387 6.524,5.49 6.524,12.015c0,6.604 -1.591,9.786 -5.888,12.173c-5.808,3.184 -11.696,2.944 -16.391,-0.796c-2.625,-2.068 -5.092,-7.24 -5.171,-10.82c-0,-5.013 4.217,-11.935 8.354,-13.766c2.387,-1.034 9.15,-0.397 12.572,1.194Zm1.194,288.193c1.034,0.716 2.943,2.705 4.217,4.535c3.023,4.218 3.262,10.821 0.477,14.959c-3.024,4.535 -6.445,6.286 -12.094,6.286c-3.82,-0 -5.57,-0.397 -7.639,-1.83c-4.297,-2.864 -6.286,-6.525 -6.286,-11.458c0,-5.092 1.274,-7.877 5.172,-11.298c2.626,-2.307 3.262,-2.467 8.594,-2.467c3.978,-0 6.365,0.398 7.559,1.273Z" style="fill:#fff;fill-rule:nonzero;"/></g><g><path d="M1296.32,438.377c-7.956,2.625 -14.799,8.434 -18.061,15.515c-2.467,5.411 -2.387,17.266 0.159,22.518c2.705,5.49 7.4,10.423 12.731,13.208c3.898,2.068 4.853,3.023 5.251,5.013c0.239,1.352 0.477,10.662 0.477,20.528l0,18.062l-4.296,1.83c-5.172,2.148 -11.697,8.673 -14.084,14.084c-2.307,5.092 -2.864,14.004 -1.273,19.493c3.422,11.697 14.641,19.415 27.849,19.177c9.866,-0.239 19.017,-6.128 23.393,-15.198c1.909,-3.899 2.148,-5.411 2.228,-12.015c-0,-6.525 -0.319,-8.195 -2.069,-12.014c-2.944,-6.286 -7.241,-10.663 -13.129,-13.527l-5.092,-2.387l0.159,-20.051l0.239,-20.051l3.182,-1.432c8.355,-3.899 13.527,-9.866 15.994,-18.38c4.853,-17.267 -6.923,-33.976 -24.985,-35.169c-3.341,-0.159 -6.604,0.08 -8.673,0.796Zm14.72,14.719c8.594,4.377 8.673,19.893 0.16,24.109c-4.138,2.149 -11.776,1.91 -15.118,-0.397c-4.695,-3.183 -5.968,-5.65 -5.968,-11.538c0,-5.967 1.751,-9.389 6.286,-12.174c3.342,-2.068 10.662,-2.068 14.64,0Zm0.08,95.641c4.854,2.705 6.047,5.092 6.047,11.617c0,5.172 -0.238,5.967 -2.466,8.752c-1.433,1.75 -4.058,3.66 -6.207,4.535c-3.262,1.433 -4.137,1.512 -7.4,0.637c-4.853,-1.353 -7.877,-3.581 -9.786,-7.321c-1.83,-3.66 -2.069,-9.468 -0.478,-12.571c1.592,-3.024 5.411,-6.445 8.116,-7.32c3.262,-1.035 8.753,-0.319 12.174,1.671Z" style="fill:#fff;fill-rule:nonzero;"/></g><g><path d="M380.184,439.092c-11.378,4.218 -18.062,15.277 -17.266,28.485c0.636,10.901 5.49,17.903 16.391,23.314l5.092,2.466l-0.477,3.263c-0.239,1.75 -0.637,10.741 -0.955,19.892l-0.557,16.709l-4.217,2.228c-10.344,5.41 -14.72,12.173 -15.277,23.472c-0.398,8.912 1.591,14.561 7.161,20.449c8.195,8.673 20.449,11.14 30.952,6.206c6.285,-3.023 11.298,-7.877 14.163,-13.844c1.75,-3.74 2.068,-5.411 2.068,-11.538c0,-6.683 -0.159,-7.558 -2.705,-12.174c-3.183,-5.888 -8.991,-11.457 -14.004,-13.367l-3.58,-1.352l-0,-40.898l3.898,-1.671c8.912,-3.66 16.789,-14.959 16.869,-24.188c0.079,-5.65 -0.637,-8.833 -2.865,-13.368c-2.864,-5.569 -7.161,-10.025 -12.094,-12.492c-3.819,-1.83 -5.729,-2.228 -12.174,-2.387c-4.933,-0.159 -8.593,0.079 -10.423,0.795Zm17.186,13.925c4.615,3.978 6.764,7.399 6.764,10.741c-0,5.809 -1.353,8.992 -5.093,12.094c-3.103,2.547 -3.898,2.786 -8.513,2.786c-8.116,-0.001 -13.288,-3.82 -14.561,-10.742c-1.114,-5.729 2.626,-12.89 7.877,-15.197c3.581,-1.592 11.537,-1.353 13.526,0.318Zm0.876,96.038c4.455,3.421 5.49,5.649 5.49,11.617c-0,5.967 -1.273,8.434 -5.888,11.617c-7.798,5.251 -18.778,1.352 -21.483,-7.639c-1.99,-6.843 1.83,-14.879 8.275,-17.266c4.455,-1.592 10.264,-0.875 13.606,1.671Z" style="fill:#fff;fill-rule:nonzero;"/></g><g><path d="M477.097,438.854c-3.501,1.114 -9.787,5.411 -11.935,8.195c-7.002,9.231 -8.355,20.768 -3.581,30.713c2.387,4.933 9.23,11.538 13.527,12.969l3.421,1.194l0.557,12.254c0.716,16.152 0.955,18.061 3.103,20.29l1.751,1.909l84.182,-0l84.182,0l1.99,4.377c2.387,5.33 8.275,11.377 13.606,13.924c3.421,1.75 5.092,1.988 11.935,1.988c7.081,0 8.434,-0.238 12.492,-2.227c5.331,-2.626 9.628,-7.161 12.492,-13.208c1.75,-3.74 2.069,-5.57 2.069,-11.617c-0,-6.047 -0.319,-7.878 -2.069,-11.537c-2.626,-5.57 -7.877,-10.822 -13.447,-13.447c-3.74,-1.751 -5.411,-2.069 -11.935,-2.069c-6.684,-0 -8.116,0.318 -12.094,2.228c-5.172,2.546 -9.708,7.32 -13.049,13.685l-2.308,4.377l-43.762,-0c-72.327,0.079 -80.443,-0.001 -98.027,-0.478l-16.948,-0.557l0,-19.494l3.422,-1.352c6.683,-2.626 13.447,-9.867 15.595,-16.551c0.557,-1.671 1.034,-6.047 0.955,-9.786c-0,-5.411 -0.319,-7.479 -1.91,-10.901c-2.785,-5.888 -7.081,-10.423 -12.253,-13.049c-3.899,-1.83 -5.729,-2.228 -12.174,-2.387c-4.138,-0.08 -8.593,0.159 -9.787,0.557Zm16.152,13.924c1.273,0.637 3.183,2.387 4.297,3.819c1.83,2.387 2.069,3.501 2.069,8.912l-0,6.286l-3.66,3.421c-3.581,3.262 -3.899,3.421 -8.673,3.421c-6.684,0 -11.299,-2.387 -13.686,-7.161c-1.034,-1.909 -1.83,-4.774 -1.83,-6.365c0.08,-5.41 3.899,-11.14 8.752,-12.97c2.467,-0.875 10.503,-0.556 12.731,0.637Zm193.429,54.742c8.593,4.536 9.548,15.994 1.989,22.677c-3.501,3.024 -5.809,3.74 -10.583,3.024c-8.911,-1.194 -13.924,-8.116 -12.094,-16.471c1.034,-4.535 3.262,-7.399 7.241,-9.389c4.455,-2.227 9.07,-2.148 13.447,0.159Z" style="fill:#fff;fill-rule:nonzero;"/></g><g><path d="M975.11,450.391c-8.116,1.592 -16.71,9.071 -19.256,16.63l-1.273,3.66l-95.242,-0l-95.242,-0l-2.547,2.625l-2.546,2.626l0,89.434l-122.931,0l-122.852,0l-1.592,-3.581c-2.068,-4.694 -8.593,-11.537 -13.367,-14.004c-3.342,-1.67 -4.854,-1.909 -12.572,-1.909c-8.672,-0 -8.911,0.079 -13.447,2.785c-5.331,3.182 -9.229,7.559 -11.776,13.208c-2.625,5.888 -2.466,15.834 0.319,21.881c2.864,6.286 7.081,10.662 13.128,13.527c4.456,2.148 6.047,2.466 11.697,2.466c11.776,0 21.085,-5.649 25.62,-15.595l1.99,-4.376l127.069,-0.319c69.86,-0.079 127.865,-0.556 128.819,-0.875c3.342,-1.273 3.581,-3.501 3.979,-50.048l0.477,-44.319l90.548,0l90.468,0l1.432,4.138c2.706,8.115 11.856,14.879 22.279,16.311c8.912,1.194 20.688,-3.978 25.701,-11.219c5.569,-8.037 6.445,-19.574 2.227,-28.406c-2.466,-5.092 -8.593,-11.298 -13.049,-13.128c-4.296,-1.83 -12.89,-2.546 -18.061,-1.512Zm12.014,14.004c5.649,2.148 9.707,9.866 8.275,15.993c-2.387,10.344 -15.356,14.561 -23.074,7.559c-2.467,-2.308 -4.854,-7.479 -4.854,-10.662c0,-7.559 5.888,-13.686 13.288,-13.765c2.228,-0 5.092,0.398 6.365,0.875Zm-494.114,95.958c4.218,2.228 7.718,8.832 7.162,13.527c-0.637,6.047 -6.684,12.094 -12.811,12.73c-10.9,1.273 -19.414,-11.457 -13.765,-20.608c4.535,-7.399 11.856,-9.548 19.414,-5.649Z" style="fill:#fff;fill-rule:nonzero;"/></g><g><path d="M825.364,524.787c-5.49,1.114 -10.424,3.899 -14.243,8.036c-5.092,5.411 -7.002,10.026 -7.4,17.823c-0.397,8.037 1.512,13.686 6.763,19.494c4.456,4.934 9.549,7.639 16.869,8.912c4.774,0.796 6.206,0.716 10.582,-0.477c9.151,-2.547 15.516,-8.037 18.619,-16.153l1.353,-3.422l138.208,0l0,68.429l0,68.428l-98.186,-0l-98.106,-0l-1.433,-3.661c-1.909,-5.012 -8.991,-12.412 -14.083,-14.719c-5.888,-2.626 -17.584,-2.705 -23.075,-0.159c-5.012,2.307 -10.662,7.638 -13.208,12.571c-1.909,3.581 -2.148,4.854 -2.148,12.333c-0,8.116 0.079,8.514 2.864,13.527c9.23,16.709 30.156,19.176 44.16,5.171c2.308,-2.307 4.615,-5.569 5.411,-7.638l1.432,-3.74l101.528,-0.397c57.209,-0.239 102.642,-0.717 103.915,-1.115c1.671,-0.477 2.626,-1.431 3.103,-3.103c0.319,-1.272 0.876,-36.839 1.115,-79.089l0.477,-76.863l-1.989,-1.273c-1.035,-0.716 -4.059,-1.432 -6.605,-1.671c-2.626,-0.238 -35.964,-0.477 -74.077,-0.477l-69.383,-0.079l-0.875,-3.661c-1.353,-5.251 -9.071,-12.969 -15.436,-15.277c-5.411,-2.068 -11.617,-2.705 -16.152,-1.75Zm13.208,15.038c5.888,2.944 8.116,12.333 4.535,19.255c-4.853,9.31 -19.494,9.31 -24.188,-0.08c-3.979,-7.797 -1.035,-17.027 6.524,-20.368c2.944,-1.274 9.23,-0.717 13.129,1.193Zm-57.209,151.815c5.57,5.013 6.843,10.423 3.978,16.55c-2.546,5.49 -4.933,7.081 -11.298,7.399c-6.366,0.398 -9.389,-0.636 -12.254,-3.978c-4.137,-4.933 -4.296,-11.856 -0.318,-17.664c2.785,-4.137 5.172,-5.172 11.219,-5.252c5.172,0 5.57,0.16 8.673,2.945Z" style="fill:#fff;fill-rule:nonzero;"/></g><g><path d="M1115.31,524.866c-8.036,1.194 -15.674,7.321 -19.573,15.754c-1.751,3.661 -2.069,5.65 -2.148,11.22c-0,6.126 0.238,7.32 2.625,12.094c3.342,6.843 8.593,11.616 15.516,14.163l2.148,0.796l0.08,77.339c0.08,89.673 0.398,102.323 2.626,104.79l1.511,1.671l95.879,0.16l95.879,0.238l1.114,3.263c3.262,9.866 17.346,18.062 28.883,16.709c15.516,-1.83 26.655,-16.948 23.95,-32.304c-1.751,-9.469 -7.48,-16.869 -16.232,-20.688c-5.251,-2.387 -15.277,-2.387 -21.324,-0.079c-5.013,1.909 -10.98,7.399 -14.64,13.526l-2.387,3.899l-5.968,0.477c-3.262,0.239 -28.485,0.637 -56.095,0.875c-27.53,0.239 -65.643,0.637 -84.501,0.875l-34.452,0.478l-0,-85.615l-0.001,-85.535l4.774,-2.148c5.65,-2.546 9.708,-6.684 12.652,-12.969c1.83,-3.9 2.068,-5.491 2.068,-12.413c0,-7.559 -0.159,-8.196 -2.705,-12.97c-1.512,-2.785 -3.819,-5.967 -5.172,-7.081c-5.808,-4.933 -16.311,-7.718 -24.507,-6.525Zm13.05,15.198c6.683,3.819 8.593,11.935 4.376,19.096c-5.172,8.832 -17.664,9.23 -23.313,0.716c-4.377,-6.604 -2.706,-15.436 3.66,-19.812c3.66,-2.467 10.9,-2.467 15.277,-0Zm216.264,203.852c8.275,5.49 8.116,18.3 -0.318,23.552c-8.753,5.331 -19.733,0.398 -21.483,-9.707c-1.035,-5.968 2.546,-13.049 7.877,-15.436c3.739,-1.751 10.025,-1.035 13.924,1.591Z" style="fill:#fff;fill-rule:nonzero;"/></g><g><path d="M1623.82,528.765c-5.252,0.637 -13.686,5.013 -17.107,8.991c-1.592,1.83 -3.82,5.252 -4.854,7.48l-1.91,4.217l-8.912,-0.001c-4.933,0.001 -9.309,0.319 -9.787,0.637c-1.909,1.194 -2.785,4.456 -3.5,12.333c-0.398,4.456 -0.716,48.457 -0.796,97.789l0,89.672l-5.092,2.467c-9.469,4.456 -14.163,12.015 -14.641,23.472c-0.397,9.628 1.512,14.958 7.48,20.847c9.15,8.911 22.835,10.582 33.816,3.978c8.196,-4.933 14.084,-16.152 13.288,-25.461c-0.876,-10.503 -9.946,-21.802 -19.892,-24.746c-1.353,-0.398 -1.432,-5.569 -1.432,-93.571l-0.001,-93.174l4.536,0.239c4.933,0.239 4.535,-0.159 9.787,8.593c6.126,10.185 22.756,14.164 34.612,8.355c9.945,-4.854 16.311,-16.152 15.197,-26.973c-1.591,-15.357 -15.754,-26.973 -30.792,-25.144Zm7.956,14.323c3.74,1.034 7.878,5.251 8.912,8.99c1.034,3.741 -0.159,10.026 -2.467,13.289c-2.148,3.023 -6.206,4.773 -11.219,4.773c-10.662,0 -17.107,-9.946 -12.731,-19.653c3.183,-7.002 9.549,-9.707 17.505,-7.399Zm-41.613,221.117c12.571,5.73 9.707,24.587 -4.138,26.814c-6.206,0.955 -12.174,-2.307 -14.72,-7.956c-2.467,-5.49 -1.592,-11.219 2.467,-15.357c4.933,-5.013 10.423,-6.206 16.391,-3.501Z" style="fill:#fff;fill-rule:nonzero;"/></g><g><path d="M1199.09,559.08c-6.047,1.83 -14.083,9.23 -16.789,15.357c-3.103,7.002 -2.705,16.709 0.955,24.109c2.228,4.376 7.957,9.787 13.288,12.492l4.058,2.069l-0,40.579l-4.376,1.989c-5.331,2.308 -11.299,8.195 -13.925,13.526c-2.705,5.65 -2.784,16.551 -0.159,22.279c3.979,8.753 8.196,12.652 16.709,15.596c13.209,4.535 27.372,-1.352 33.578,-14.004c1.751,-3.501 1.989,-5.012 1.989,-12.731c0,-6.922 -0.318,-9.309 -1.432,-11.378c-3.183,-5.729 -11.299,-12.97 -15.913,-14.163l-2.149,-0.477l0,-41.614l3.581,-1.512c5.172,-2.069 11.06,-7.718 13.685,-13.049c1.99,-4.058 2.228,-5.331 2.228,-12.89c0,-7.718 -0.159,-8.673 -2.307,-12.571c-4.934,-8.832 -13.368,-13.845 -23.95,-14.243c-3.501,-0.08 -7.559,0.159 -9.071,0.636Zm15.754,14.88c7.877,4.774 9.071,15.913 2.308,22.199c-6.286,5.888 -17.823,3.978 -21.881,-3.74c-4.217,-7.877 -0.398,-17.186 8.195,-20.29c3.819,-1.432 6.843,-0.875 11.378,1.831Zm-0.795,94.446c5.092,2.626 8.593,9.31 7.638,14.561c-1.114,6.524 -7.638,12.094 -14.004,12.094c-6.126,-0.079 -12.89,-5.251 -13.924,-10.821c-1.193,-6.207 1.91,-13.208 6.922,-15.675c3.342,-1.671 10.424,-1.75 13.368,-0.159Z" style="fill:#fff;fill-rule:nonzero;"/></g><g><path d="M919.731,609.367c-7.32,2.069 -14.322,8.195 -17.107,15.038l-1.512,3.66l-10.423,0.478c-20.529,0.875 -79.647,1.273 -273.792,1.83l-197.407,0.477l-2.626,-4.933c-3.341,-6.206 -7.399,-10.423 -12.412,-12.89c-3.342,-1.671 -5.013,-1.909 -12.253,-1.909c-7.002,-0 -8.912,0.317 -11.936,1.75c-5.251,2.625 -10.264,7.877 -12.969,13.685c-2.069,4.297 -2.387,5.968 -2.387,11.617c-0,8.355 2.307,13.845 8.514,19.892c5.569,5.331 10.343,7.161 19.175,7.082c5.411,-0 7.082,-0.319 11.14,-2.387c5.968,-2.944 10.662,-7.48 13.447,-13.208l2.148,-4.456l92.06,-0.478c50.604,-0.239 150.939,-0.875 222.948,-1.273c72.008,-0.477 138.845,-0.795 148.552,-0.795l17.664,-0l2.148,4.853c2.467,5.411 7.718,10.663 13.686,13.606c3.103,1.512 5.013,1.831 11.299,1.831c6.763,-0 8.036,-0.239 11.776,-2.228c12.253,-6.445 18.459,-19.733 14.879,-31.987c-2.626,-9.07 -8.275,-15.436 -16.312,-18.3c-4.853,-1.75 -13.845,-2.228 -18.3,-0.955Zm14.958,13.925c5.252,2.387 8.276,9.707 6.605,15.913c-1.751,6.445 -6.843,10.503 -13.209,10.503c-4.694,0 -8.275,-1.512 -10.98,-4.695c-4.456,-5.331 -4.694,-11.696 -0.636,-17.345c4.376,-6.047 11.139,-7.718 18.22,-4.376Zm-536.443,1.67c6.126,2.785 8.991,9.628 7.161,16.868c-1.83,6.923 -7.241,10.663 -14.481,10.106c-9.867,-0.796 -15.755,-11.22 -11.458,-20.052c3.501,-7.32 11.458,-10.263 18.778,-6.922Z" style="fill:#fff;fill-rule:nonzero;"/></g><g><path d="M1670.21,632.92c-4.615,2.227 -11.855,9.229 -14.162,13.844c-1.114,2.069 -2.308,5.57 -2.706,7.718c-2.068,10.822 5.331,24.268 15.993,29.202l4.695,2.148l-0,100.652l-24.905,36.124c-13.765,19.812 -26.337,38.033 -28.007,40.579l-3.024,4.536l-19.813,-0l-19.732,-0l-1.91,-4.377c-2.387,-5.331 -7.798,-10.741 -13.845,-13.686c-3.978,-1.909 -5.49,-2.227 -11.696,-2.227c-5.729,-0 -7.957,0.398 -11.06,1.83c-6.365,2.944 -10.424,6.763 -13.367,12.731c-2.387,4.854 -2.626,5.967 -2.626,12.493c0,6.047 0.398,7.876 2.148,11.696c2.467,5.331 7.878,10.901 12.97,13.367c4.933,2.387 14.561,3.023 20.369,1.352c7.718,-2.307 15.277,-9.468 17.585,-16.709l0.875,-2.944l17.584,-0.08c20.29,0.001 28.247,-0.476 29.679,-1.67c1.194,-0.955 14.64,-19.653 27.053,-37.636c4.853,-7.001 14.72,-21.324 22.04,-31.827l13.208,-19.096l0,-13.924c0,-7.639 0.239,-31.35 0.557,-52.674l0.478,-38.749l3.262,-1.193c4.933,-1.91 11.219,-7.798 13.765,-13.049c1.989,-4.058 2.228,-5.332 2.228,-12.89c-0,-7.48 -0.239,-8.752 -2.148,-12.333c-2.546,-4.933 -8.275,-10.344 -13.209,-12.572c-5.49,-2.467 -17.584,-2.785 -22.279,-0.636Zm18.699,14.083c1.193,0.955 3.103,2.864 4.058,4.376c2.546,3.66 2.228,11.776 -0.557,15.675c-7.639,10.742 -25.541,4.933 -25.541,-8.275c-0,-4.058 1.75,-7.479 5.57,-10.98c3.341,-3.024 3.421,-3.024 8.831,-2.706c3.899,0.239 6.048,0.716 7.639,1.91Zm-131.047,215.309c5.171,2.706 6.683,5.252 7.001,11.856l0.319,5.569l-4.377,4.456l-4.456,4.377l-5.569,-0.319c-6.604,-0.318 -9.15,-1.829 -11.776,-7.002c-2.148,-4.057 -2.387,-10.104 -0.716,-13.367c3.501,-6.763 12.332,-9.23 19.574,-5.57Z" style="fill:#fff;fill-rule:nonzero;"/></g><g><path d="M1497.95,636.181c-7.718,1.99 -14.561,7.48 -18.062,14.641l-2.467,5.013l-22.438,0.397c-17.743,0.398 -23.074,0.717 -25.461,1.671l-2.944,1.274l-0,80.203l-3.342,0.955c-5.092,1.512 -14.163,10.98 -16.391,17.028c-3.581,9.627 -1.592,19.414 5.569,27.291c16.153,17.664 44.16,9.231 47.502,-14.242c1.751,-12.492 -4.853,-24.825 -15.754,-29.36l-3.819,-1.512l-0.478,-30.952c-0.318,-17.027 -0.795,-32.543 -1.034,-34.532l-0.557,-3.66l38.988,-0l1.353,3.58c1.83,4.615 7.32,10.663 12.174,13.288c4.774,2.626 12.572,4.217 17.186,3.501c5.172,-0.796 12.731,-4.695 16.391,-8.434c13.208,-13.606 8.673,-36.124 -8.832,-44.16c-5.013,-2.308 -12.81,-3.183 -17.584,-1.99Zm10.662,13.607c5.888,1.989 9.707,7.479 9.707,13.924c0,14.72 -20.449,19.017 -26.576,5.57c-2.625,-5.809 -1.431,-12.015 3.103,-16.152c4.297,-3.899 8.753,-5.013 13.766,-3.342Zm-67.155,105.427c7.399,5.649 7.399,17.504 0.079,22.676c-3.819,2.785 -11.378,3.104 -15.595,0.716c-9.469,-5.331 -9.071,-21.006 0.637,-24.825c5.013,-1.989 11.139,-1.432 14.879,1.433Z" style="fill:#fff;fill-rule:nonzero;"/></g><g><path d="M473.755,687.104c-7.877,1.114 -16.231,7.241 -20.13,14.72c-1.989,3.581 -2.149,4.775 -2.149,12.731c0,10.185 1.114,13.209 7.4,19.335c5.729,5.57 11.06,7.718 19.255,7.638c5.729,0 7.48,-0.318 11.697,-2.228c5.808,-2.625 11.458,-8.274 13.765,-13.605l1.512,-3.581l87.603,-0l87.525,0l-0,22.995c-0,27.371 -0.319,26.258 8.434,27.212c3.023,0.398 44.558,0.636 92.298,0.636l86.729,0.08l1.83,4.377c2.546,6.206 10.423,13.446 16.55,15.197c9.707,2.785 21.244,-0 28.087,-6.843c7.32,-7.32 10.025,-19.892 6.365,-29.599c-2.307,-6.286 -7.479,-11.776 -13.685,-14.64c-4.376,-1.99 -5.968,-2.308 -12.174,-2.308c-6.525,-0 -7.718,0.239 -12.492,2.626c-5.968,2.944 -10.026,7.081 -12.731,13.049l-1.75,3.819l-87.286,-0l-87.285,0l-0.319,-23.313c-0.159,-12.731 -0.557,-23.871 -0.955,-24.586c-0.318,-0.716 -1.193,-1.592 -1.909,-1.99c-0.716,-0.318 -42.409,-0.716 -92.616,-0.875l-91.264,-0.239l-2.944,-5.49c-3.422,-6.525 -6.764,-9.787 -13.447,-12.731c-5.411,-2.546 -10.105,-3.183 -15.914,-2.387Zm11.219,15.039c8.673,3.898 10.026,15.992 2.546,22.915c-8.593,8.036 -23.074,1.193 -23.074,-10.901c-0,-5.649 3.262,-10.662 8.116,-12.651c3.182,-1.273 8.911,-0.955 12.412,0.637Zm416.456,51.4c6.843,3.501 9.389,14.561 4.854,20.926c-6.286,8.833 -20.847,6.843 -24.666,-3.262c-4.615,-12.094 8.195,-23.472 19.812,-17.664Z" style="fill:#fff;fill-rule:nonzero;"/></g><g><path d="M1499.22,739.699c-13.765,5.411 -21.165,22.04 -15.914,35.805l1.989,5.252l-16.47,16.47l-16.391,16.391l-369.352,-0.001l-0.955,-3.103c-1.432,-4.933 -6.365,-10.503 -11.696,-13.367c-14.88,-7.957 -32.066,-2.546 -39.386,12.333c-1.592,3.103 -1.91,5.013 -1.91,11.298c0,9.071 1.432,12.89 7.161,19.017c9.867,10.583 25.939,11.378 38.352,1.91c2.864,-2.228 7.002,-8.355 7.797,-11.617c0.319,-1.273 1.114,-2.149 1.91,-2.149c0.716,0 84.898,0 187.063,0.001l185.79,-0l19.017,-19.017l18.937,-18.937l4.933,1.512c13.606,4.297 27.849,-1.671 34.055,-14.322c2.307,-4.615 2.625,-6.047 2.625,-11.696c0,-5.252 -0.397,-7.161 -2.148,-10.901c-2.705,-5.809 -8.274,-11.378 -14.003,-14.004c-6.286,-2.864 -15.516,-3.262 -21.404,-0.875Zm17.584,14.004c7.877,5.411 8.514,16.709 1.353,22.756c-4.774,3.978 -13.367,3.74 -18.142,-0.477c-8.115,-7.161 -6.206,-18.301 4.138,-23.95c3.421,-1.83 8.593,-1.193 12.651,1.671Zm-452.261,55.378c3.739,2.546 5.569,6.366 5.569,11.935c0,12.572 -14.879,18.46 -23.949,9.389c-6.605,-6.604 -4.218,-18.937 4.455,-22.915c3.501,-1.591 10.265,-0.796 13.925,1.591Z" style="fill:#fff;fill-rule:nonzero;"/></g><g><path d="M974.553,739.619c-5.093,0.875 -8.275,2.706 -13.208,7.638c-6.525,6.525 -8.833,13.845 -7.4,23.155c1.591,9.786 6.684,16.788 15.277,20.767l4.614,2.148l0,30.395l-26.018,0.477c-14.402,0.318 -74.077,0.796 -132.798,1.114l-106.621,0.477l-1.511,-3.899c-0.955,-2.625 -3.183,-5.649 -6.763,-9.229c-6.207,-6.207 -10.265,-7.798 -19.813,-7.798c-5.012,0 -6.843,0.398 -10.821,2.308c-8.036,3.739 -13.606,11.059 -15.516,20.289c-1.193,5.968 -0.556,10.742 2.467,16.869c2.705,5.808 7.161,10.025 13.367,12.969c3.82,1.751 5.491,2.069 11.617,2.069c6.604,-0 7.559,-0.239 12.174,-2.706c5.808,-3.182 11.696,-9.309 12.969,-13.526l0.876,-3.024l13.287,-0.556c7.241,-0.239 63.495,-0.637 125.001,-0.876c61.506,-0.238 117.521,-0.557 124.444,-0.796c11.537,-0.318 12.889,-0.477 15.277,-2.148l2.705,-1.83l-0,-40.579l3.819,-1.512c5.411,-2.228 11.458,-8.275 14.163,-14.243c1.91,-4.217 2.228,-5.888 2.228,-11.696c-0,-8.514 -1.751,-12.731 -7.718,-18.619c-5.172,-5.251 -7.639,-6.524 -14.163,-7.558c-5.649,-0.955 -6.684,-0.955 -11.935,-0.08Zm12.492,14.004c10.264,4.853 10.901,18.221 1.193,24.746c-3.501,2.386 -10.025,2.466 -14.322,0.238c-8.514,-4.297 -9.389,-17.425 -1.591,-23.233c5.331,-3.979 9.071,-4.377 14.72,-1.751Zm-299.174,66.279c7.877,4.854 9.628,14.64 3.74,21.643c-2.785,3.262 -5.888,4.694 -10.344,4.694c-7.877,-0.08 -13.924,-6.286 -13.924,-14.322c0.079,-5.569 2.705,-9.787 7.718,-12.572c2.625,-1.511 10.025,-1.114 12.81,0.557Z" style="fill:#fff;fill-rule:nonzero;"/></g><g><path d="M1329.03,858.095c-7.798,1.989 -16.55,9.628 -19.096,16.789l-1.432,3.978l-20.29,0c-11.219,0 -21.801,0.398 -23.552,0.796c-6.365,1.432 -5.968,-2.307 -5.888,56.413c0.08,56.891 0.318,64.529 2.546,66.678c1.432,1.432 3.66,1.591 59.278,2.546l4.138,0.079l-0,97.868l-37.079,0l-1.83,-4.376c-2.228,-5.411 -7.081,-10.343 -12.81,-13.049c-3.819,-1.83 -5.411,-2.069 -12.333,-2.069c-7.082,0 -8.434,0.239 -12.413,2.228c-5.49,2.626 -10.503,7.957 -13.208,13.845c-1.83,3.899 -1.989,5.092 -1.671,11.617c0.398,8.434 2.546,13.606 7.718,18.778c7.718,7.718 22.12,9.866 32.066,4.774c4.774,-2.467 11.219,-9.23 12.89,-13.606l1.432,-3.66l22.438,-0.318c12.254,-0.16 22.995,-0.637 23.791,-0.955c3.342,-1.512 3.342,-1.83 3.58,-57.766c0.159,-29.52 0,-55.936 -0.239,-58.642c-0.318,-3.023 -1.114,-5.728 -1.989,-6.763l-1.432,-1.83l-30.713,-0.239l-30.713,-0.238l-0,-99.38l35.726,-0l2.944,5.57c5.41,10.343 13.606,15.356 25.382,15.436c5.331,0.079 7.081,-0.239 10.821,-1.989c10.105,-4.774 15.118,-12.413 15.675,-23.791c0.636,-12.412 -4.058,-20.767 -14.402,-25.78c-6.127,-3.024 -14.322,-4.217 -19.335,-2.944Zm13.765,14.959c8.673,4.058 9.389,18.38 1.114,23.87c-3.819,2.626 -12.253,2.626 -16.073,0c-3.262,-2.148 -6.285,-7.798 -6.285,-11.776c-0,-3.819 3.023,-9.468 6.365,-11.696c3.262,-2.149 10.662,-2.387 14.879,-0.398Zm-76.543,224.539c6.285,2.785 9.15,8.753 7.956,15.993c-1.352,8.036 -11.298,13.288 -18.937,10.026c-5.331,-2.228 -8.514,-7.4 -8.514,-13.686c0,-4.695 1.671,-8.434 4.695,-10.582c4.853,-3.501 9.787,-4.058 14.8,-1.751Z" style="fill:#fff;fill-rule:nonzero;"/></g><g><path d="M1390.45,858.732c-4.932,1.67 -11.377,7.559 -14.401,13.049c-1.83,3.501 -2.387,5.49 -2.625,10.821c-0.637,11.14 3.342,19.335 11.776,24.825c14.401,9.309 34.373,3.74 40.579,-11.298l1.91,-4.536l41.375,0l7.241,4.536c27.132,17.186 77.339,49.888 78.214,51.002c0.717,0.955 0.955,6.206 0.955,19.971l0,18.778l-5.172,2.706c-6.842,3.501 -12.412,9.548 -14.242,15.595c-1.989,6.286 -1.512,16.869 1.035,21.723c2.705,5.251 7.638,10.183 12.651,12.65c3.898,1.91 5.331,2.149 12.412,2.149c5.65,-0 8.912,-0.398 10.981,-1.274c3.819,-1.75 10.582,-8.036 13.049,-12.253c3.501,-5.967 3.818,-19.733 0.636,-25.939c-2.387,-4.615 -8.912,-10.662 -13.845,-12.89l-4.774,-2.148l-0.079,-22.041c-0,-12.094 -0.239,-22.676 -0.557,-23.392c-0.876,-2.149 -12.095,-9.628 -70.577,-47.343l-23.79,-15.356l-22.518,-0l-22.518,0l-2.148,-4.615c-2.546,-5.331 -8.116,-11.219 -13.05,-13.766c-4.694,-2.466 -16.709,-2.944 -22.518,-0.954Zm16.949,13.287c3.103,1.671 6.524,6.445 7.002,9.867c1.671,12.571 -10.981,21.165 -21.404,14.561c-4.614,-2.944 -6.206,-5.889 -6.206,-11.617c0,-5.252 1.273,-7.957 5.172,-11.458c2.546,-2.227 3.342,-2.466 8.036,-2.466c2.944,-0 6.127,0.477 7.4,1.113Zm163.034,130.093c5.092,3.581 7.002,13.447 3.74,19.176c-1.989,3.422 -7.479,6.366 -11.935,6.366c-4.297,-0 -9.867,-2.944 -12.094,-6.286c-1.433,-2.069 -1.83,-3.82 -1.83,-7.48c-0.001,-9.389 5.489,-14.481 14.879,-13.845c3.262,0.239 5.649,0.955 7.24,2.069Z" style="fill:#fff;fill-rule:nonzero;"/></g><g><path d="M1046.96,867.245c-7.32,2.944 -11.457,6.923 -15.277,14.481l-2.068,4.138l-12.97,0.477c-13.447,0.478 -42.887,0.955 -99.3,1.671c-53.39,0.637 -83.387,1.194 -91.9,1.671l-7.957,0.398l-2.785,-5.252c-3.262,-6.206 -8.832,-11.775 -14.163,-14.083c-5.172,-2.307 -14.641,-2.865 -19.733,-1.114c-8.195,2.785 -14.799,9.628 -17.903,18.539c-1.909,5.729 -1.909,9.866 0.08,15.834c4.376,12.89 15.357,20.13 28.963,19.255c9.468,-0.636 17.027,-5.808 22.358,-15.277l2.785,-5.092l39.624,-0.477c21.722,-0.239 49.253,-0.636 61.029,-0.875c11.855,-0.159 41.773,-0.637 66.518,-0.875l45.115,-0.558l2.069,4.377c2.466,5.172 8.513,11.139 13.845,13.606c3.023,1.432 5.171,1.75 11.696,1.75c7.638,0 8.195,-0.079 13.129,-2.864c12.014,-6.604 16.947,-19.097 12.889,-32.305c-3.023,-9.548 -8.275,-14.64 -18.3,-17.743c-6.763,-2.069 -12.174,-1.989 -17.744,0.318Zm14.482,12.492c11.935,3.979 12.731,20.528 1.273,26.098c-4.217,2.069 -7.161,2.069 -11.378,0.16c-5.093,-2.308 -7.798,-6.445 -8.116,-12.333c-0.319,-6.366 1.909,-10.424 7.002,-13.049c3.898,-1.91 7.161,-2.228 11.219,-0.876Zm-263.528,5.252c5.729,4.615 7.161,11.378 3.819,17.822c-3.501,6.525 -11.378,8.912 -18.459,5.491c-5.65,-2.706 -7.082,-4.853 -7.4,-11.06c-0.398,-7.32 1.352,-10.741 7.4,-14.004c3.739,-1.989 10.901,-1.193 14.64,1.751Z" style="fill:#fff;fill-rule:nonzero;"/></g><g><path d="M1196.94,900.425c-11.537,1.353 -20.051,8.991 -23.075,20.608c-3.262,12.81 2.626,24.904 15.436,31.667l4.934,2.626l-0,39.704l-4.536,2.308c-6.922,3.501 -10.98,7.399 -13.924,13.447c-2.307,4.695 -2.626,6.047 -2.626,11.697c0,5.489 0.398,7.081 2.547,11.696c5.649,12.015 16.311,17.425 30.713,15.595c8.275,-1.114 15.436,-6.843 19.494,-15.675c1.75,-3.66 2.148,-5.649 2.148,-11.219c0,-6.126 -0.239,-7.32 -2.626,-12.094c-2.944,-5.968 -6.604,-9.548 -13.686,-13.288l-4.774,-2.546l0,-39.625l5.093,-2.466c5.729,-2.705 10.901,-7.878 13.924,-13.845c1.671,-3.421 1.83,-4.535 1.512,-12.651c-0.318,-10.105 -1.114,-12.253 -6.445,-17.584c-6.684,-6.525 -14.879,-9.39 -24.109,-8.355Zm12.253,15.834c8.196,6.047 6.923,19.494 -2.307,24.268c-4.695,2.466 -12.81,0.954 -16.311,-2.944c-2.785,-3.024 -3.501,-5.013 -3.501,-9.787c-0,-6.763 2.307,-10.503 7.956,-13.288c0.637,-0.318 3.501,-0.477 6.366,-0.398c4.058,0.16 5.729,0.637 7.797,2.149Zm-1.83,94.128c7.798,4.456 9.787,13.686 4.377,21.085c-1.83,2.547 -3.263,3.501 -6.445,4.456c-10.265,3.103 -18.221,-2.705 -18.221,-13.049c0.079,-11.139 10.9,-17.823 20.289,-12.492Z" style="fill:#fff;fill-rule:nonzero;"/></g><g><path d="M1454.82,916.18c-7.241,1.909 -15.198,8.673 -18.381,15.515l-1.909,4.217l-23.075,0.398c-25.939,0.477 -26.417,0.556 -27.292,5.967c-0.318,1.671 -0.557,19.494 -0.557,39.625l0,36.681l-4.376,2.148c-6.286,3.103 -10.9,7.639 -13.606,13.527c-1.989,4.296 -2.307,5.887 -2.228,12.094c0,6.285 0.239,7.797 2.149,11.776c2.546,5.092 7.877,10.264 13.288,12.81c2.943,1.353 5.092,1.671 11.934,1.671c7.241,-0 8.833,-0.239 11.776,-1.83c5.252,-2.785 10.265,-7.798 12.652,-12.731c3.103,-6.285 3.501,-15.436 0.955,-22.04c-2.229,-5.968 -7.559,-11.697 -13.925,-15.038l-4.694,-2.467l-0.239,-34.453l-0.159,-34.373l18.698,-0l18.619,0l2.149,4.377c2.625,5.331 9.229,11.776 14.401,14.083c2.467,1.035 6.127,1.751 10.424,2.068c6.365,0.319 6.842,0.24 12.492,-2.546c9.389,-4.614 14.401,-12.094 15.277,-22.676c1.352,-16.073 -9.787,-28.644 -25.86,-29.201c-3.342,-0.159 -7.161,0 -8.513,0.398Zm13.128,13.765c4.695,2.387 8.355,8.195 8.275,13.049c-0.239,12.015 -14.958,18.221 -23.632,10.025c-3.341,-3.103 -4.535,-5.967 -4.535,-10.503c0,-4.853 1.433,-7.956 4.933,-10.662c5.093,-3.819 9.946,-4.376 14.959,-1.909Zm-70.497,103.676c4.376,2.069 7.082,6.604 7.082,11.776c-0,5.251 -1.751,8.673 -5.888,11.696c-10.026,7.241 -23.075,-0.079 -22.04,-12.412c0.875,-10.185 11.139,-15.675 20.846,-11.06Z" style="fill:#fff;fill-rule:nonzero;"/></g><g><path d="M964.209,922.624c-7.798,1.353 -14.879,7.002 -18.778,14.959c-1.909,4.058 -2.228,5.41 -2.228,12.492c0,7.081 0.239,8.434 2.149,11.935c5.808,11.06 18.459,17.187 30.553,14.72c8.434,-1.671 15.516,-7.4 19.813,-15.834l2.068,-4.058l16.789,0.159l16.789,0.238l38.909,84.343c21.324,46.387 42.648,92.616 47.263,102.721l8.434,18.459l-3.978,5.172c-5.252,6.843 -6.843,11.697 -6.366,19.574c1.114,18.46 17.903,29.679 36.203,24.109c8.992,-2.785 15.039,-9.23 17.426,-18.619c2.705,-10.502 -0,-20.13 -7.719,-27.212c-5.171,-4.774 -8.752,-6.445 -17.345,-7.877l-5.968,-0.955l-25.7,-55.697c-63.733,-137.97 -72.407,-156.032 -75.43,-157.146c-1.193,-0.477 -10.185,-0.795 -20.687,-0.795l-18.62,-0l-2.546,-5.252c-5.649,-11.458 -18.3,-17.743 -31.031,-15.436Zm9.787,13.526c3.501,1.035 7.4,4.138 8.991,7.241c1.83,3.501 1.512,9.946 -0.716,13.765c-2.865,4.854 -7.4,7.161 -12.97,6.605c-8.752,-0.876 -13.447,-6.366 -12.81,-14.959c0.477,-6.605 4.217,-11.219 10.264,-12.652c3.74,-0.875 3.979,-0.875 7.241,0Zm176.322,237.589c13.446,7.877 4.217,29.838 -10.901,25.78c-4.456,-1.194 -7.559,-4.058 -9.628,-8.912c-1.591,-3.739 -1.671,-4.615 -0.875,-7.718c0.477,-1.91 1.671,-4.535 2.546,-5.808c3.978,-5.49 12.492,-7.002 18.858,-3.342Z" style="fill:#fff;fill-rule:nonzero;"/></g><g><path d="M1098.2,938.14c-8.514,2.307 -15.118,7.241 -18.46,13.765c-2.466,4.853 -3.501,12.094 -2.466,17.823c2.387,13.129 11.855,21.722 25.222,22.836l6.127,0.477l46.388,105.825c25.462,58.164 46.388,106.223 46.388,106.7c-0,0.398 -1.114,1.83 -2.467,3.183c-1.352,1.273 -3.58,4.456 -4.933,7.081c-3.342,6.525 -3.899,16.073 -1.353,22.836c2.228,5.968 7.639,11.935 13.368,14.72c3.978,1.989 5.41,2.228 12.094,2.228c6.525,0 8.196,-0.318 12.094,-2.148c5.491,-2.546 10.822,-7.718 13.447,-12.97c1.592,-3.342 1.91,-5.171 1.91,-11.139c-0,-6.524 -0.239,-7.718 -2.626,-12.492c-4.694,-9.548 -12.492,-14.8 -23.154,-15.516l-6.206,-0.477l-3.422,-8.435c-4.217,-10.423 -28.962,-67.473 -62.778,-144.732c-14.084,-32.146 -25.542,-58.722 -25.542,-59.199c0,-0.478 1.273,-2.387 2.785,-4.297c5.968,-7.32 8.434,-15.834 6.763,-23.87c-2.387,-11.458 -9.707,-19.414 -20.289,-22.199c-5.65,-1.432 -7.48,-1.432 -12.89,-0Zm12.174,13.844c4.853,2.228 7.001,5.729 7.32,12.015c0.318,6.684 -1.83,10.741 -7.002,13.287c-4.138,2.149 -7.639,2.308 -11.696,0.637c-3.979,-1.671 -5.729,-3.342 -7.48,-7.161c-1.909,-4.137 -1.909,-7.877 0.08,-11.935c3.501,-7.161 11.537,-10.105 18.778,-6.843Zm114.975,264.483c8.514,4.456 9.469,16.152 1.83,22.756c-6.047,5.331 -13.208,5.013 -18.778,-0.796c-7.002,-7.32 -5.49,-17.584 3.342,-22.04c4.535,-2.227 9.15,-2.227 13.606,0.08Z" style="fill:#fff;fill-rule:nonzero;"/></g><g><path d="M1475.43,1010.94c-5.808,2.865 -10.9,8.037 -13.606,14.084c-1.829,3.899 -1.989,5.092 -1.67,12.015c0.238,6.683 0.636,8.275 2.625,12.014c2.706,4.934 9.946,11.219 14.8,12.811l3.103,1.034l0,40.023l-16.073,11.298l-16.152,11.298l-20.687,0l-20.768,0l-2.068,-4.217c-2.547,-5.251 -5.49,-8.752 -9.708,-11.617c-11.059,-7.558 -25.939,-5.967 -35.407,3.82c-5.729,5.888 -7.48,11.06 -7.081,20.767c0.238,6.524 0.556,8.116 2.466,11.298c3.183,5.491 10.423,11.618 15.516,13.049c6.126,1.831 16.152,1.274 20.926,-1.114c4.774,-2.307 11.458,-9.07 13.606,-13.765l1.671,-3.739l23.075,-0.557l23.074,-0.557l16.391,-11.856c8.991,-6.445 18.142,-13.287 20.29,-15.276l3.978,-3.422l0.557,-9.15c0.318,-5.013 0.637,-15.198 0.637,-22.597l0.079,-13.527l4.377,-2.307c5.013,-2.626 9.946,-7.718 12.969,-13.606c1.83,-3.422 2.148,-4.934 2.148,-11.14c0,-6.206 -0.318,-7.797 -2.307,-12.094c-4.615,-10.025 -12.174,-14.72 -24.348,-15.118c-7.082,-0.239 -7.877,-0.159 -12.413,2.148Zm14.8,11.22c9.389,1.989 13.765,11.219 9.628,20.289c-2.546,5.649 -7.161,7.957 -14.322,7.082c-3.899,-0.478 -4.854,-1.035 -8.196,-4.376c-3.66,-3.581 -3.819,-3.979 -3.819,-8.275c0,-2.467 0.477,-5.729 1.114,-7.161c1.353,-3.342 4.933,-6.684 8.036,-7.559c3.263,-0.955 3.024,-0.955 7.559,-0Zm-104.234,97.947c10.503,5.331 10.503,19.732 0.001,25.143c-2.944,1.512 -4.297,1.751 -7.559,1.353c-12.333,-1.512 -17.346,-15.198 -8.673,-23.871c4.535,-4.535 10.503,-5.49 16.231,-2.625Z" style="fill:#fff;fill-rule:nonzero;"/></g></g></svg>